# xmcd
# 
# Track frame offsets:
#     150
#     12519
#     27578
#     41847
#     55284
#     74954
#     91655
#     100240
#     111635
#     121881
#     133754
#     141928
#     152898
#     163000
#     175361
#     185363
#     197708
#     206699
#     220323
#     246076
# 
# Disc length: 3386
# 
# Revision: 1
# Processed by: cddbd v1.5.2PL0 Copyright (c) Steve Scherf et al.
# Submitted via: BonkEnc v1.0.6
# 
DISCID=3a0d3814
DTITLE=César Menotti and Fabiano - Mensagem Pra Ela
DYEAR=2007
DGENRE=Forró
TTITLE0=Mensagem pra ela
TTITLE1=Leilão
TTITLE2=Caso marcado
TTITLE3=Como um anjo
TTITLE4=Deixa eu te amar
TTITLE5=Dois corações e uma história
TTITLE6=Feiticeira
TTITLE7=Todando em frente
TTITLE8=Tô por ai
TTITLE9=Vem comigo
TTITLE10=Coração está em pedaços
TTITLE11=Meu não
TTITLE12=Passou da conta
TTITLE13=Vida cigana
TTITLE14=É o amor
TTITLE15=Bão também
TTITLE16=Vida Vazia
TTITLE17=Sem medo de ser feliz
TTITLE18=Lugar melhor que BH- Magia e mistério
TTITLE19=Sessenta dias apaixonado
EXTD=
EXTT0=
EXTT1=
EXTT2=
EXTT3=
EXTT4=
EXTT5=
EXTT6=
EXTT7=
EXTT8=
EXTT9=
EXTT10=
EXTT11=
EXTT12=
EXTT13=
EXTT14=
EXTT15=
EXTT16=
EXTT17=
EXTT18=
EXTT19=
PLAYORDER=
